<svg width="447" height="271" viewBox="0 0 447 271" fill="none" xmlns="http://www.w3.org/2000/svg">
    <path d="M0 28.0033C0 12.5375 12.5273 0 27.9805 0H419.02C434.473 0 447 12.5375 447 28.0033V172.344C447 180.232 443.675 187.755 437.844 193.062L360.208 263.715C355.058 268.403 348.346 271 341.384 271H27.9805C12.5273 271 0 258.462 0 242.997V28.0033Z" fill="#3CA1F3"/>
    <path d="M75.9209 271H27.9805C12.5273 271 0 258.462 0 242.997V99L47 47L192 73L162 103L179 120.5L192.5 154L75.9209 271Z" fill="#1681D8"/>
    <path d="M92.3819 73.2885V100.497L94.2253 98.9823C96.7674 96.8935 108.717 87.7832 138.643 87.7832H140.181C165.774 87.7832 181.221 92.715 190.227 100.291C194.708 104.06 197.524 108.425 199.225 113.035C200.918 117.622 201.577 122.64 201.577 127.972V129.009C201.577 133.84 200.894 138.865 198.965 143.745C197.022 148.658 193.756 153.572 188.463 157.936C177.845 166.69 159.355 173 128.048 173H119.846C84.428 173 66.1422 165.604 56.7493 156.902C52.0822 152.578 49.6842 147.999 48.4334 143.975C47.3626 140.53 47.0739 137.306 47.0137 134.615H92.9532C93.1715 135.195 93.4826 135.885 93.9349 136.622C94.8136 138.053 96.1687 139.578 98.3104 140.98C102.573 143.77 110.135 146.193 123.776 146.193C136.107 146.193 143.477 144.299 147.804 141.359C149.979 139.88 151.493 138.068 152.463 135.911C153.462 133.69 153.803 131.289 153.803 129.009V128.318C153.803 126.066 153.458 123.695 152.457 121.503C151.486 119.375 149.974 117.583 147.801 116.117C143.475 113.201 136.108 111.307 123.776 111.307C110.304 111.307 102.642 113.515 98.2608 115.967C94.9885 117.798 93.4456 119.824 92.7058 121.33H47V47H192.691V73.2885H92.3819Z" fill="white"/>
    <path d="M277.338 104.188H289.937V92H277.338V104.188Z" fill="white"/>
    <path d="M289.937 168.972H277.338V111.782H289.937V168.972Z" fill="white"/>
    <path d="M259.817 129.146L260.857 130.051L267.897 120.816L266.989 119.765C265.07 117.544 262.723 115.787 259.974 114.481C257.273 113.13 254.442 112.171 251.485 111.601C248.621 110.969 245.871 110.65 243.238 110.65C239.047 110.65 235.182 111.322 231.656 112.686C228.191 113.983 225.316 115.891 223.102 118.432C220.884 121.059 219.752 124.241 219.752 127.879C219.752 132.164 220.82 135.707 223.124 138.276C225.276 140.676 228.063 142.473 231.399 143.699C234.684 144.812 238.222 145.793 241.943 146.625C244.452 147.099 246.818 147.644 249.002 148.251C251.129 148.776 252.771 149.486 253.92 150.313C254.915 151.03 255.268 151.826 255.268 152.771C255.268 153.999 254.851 154.915 253.9 155.655C252.759 156.473 251.298 157.093 249.478 157.475C247.644 157.805 245.913 157.967 244.286 157.967C240.686 157.967 237.535 157.342 234.807 156.127C232.041 154.826 229.653 153.08 227.63 150.894L226.726 149.919L218 158.268L218.967 159.495C222.059 163.416 225.874 166.18 230.362 167.772C234.816 169.258 239.562 170 244.571 170C248.582 170 252.324 169.325 255.787 167.958C259.265 166.585 262.113 164.569 264.265 161.868C266.546 159.02 267.677 155.544 267.677 151.537C267.677 148.584 267.008 145.998 265.585 143.889C264.233 141.818 262.436 140.193 260.236 139C258.167 137.778 255.822 136.783 253.211 136.007C250.697 135.241 248.151 134.614 245.574 134.127C243.007 133.585 240.666 133.012 238.549 132.407C236.499 131.754 234.915 130.962 233.75 130.066C232.801 129.293 232.4 128.431 232.351 127.43C232.359 126.226 232.777 125.421 233.667 124.825C234.884 123.989 236.363 123.392 238.12 123.076C240.025 122.744 241.826 122.58 243.524 122.58C246.126 122.58 248.949 123.187 252.002 124.44C255.064 125.698 257.663 127.271 259.817 129.146Z" fill="white"/>
    <path d="M395 168.972H382.306V136.725C382.306 132.652 381.47 129.523 379.923 127.196C378.516 125.079 375.987 123.815 371.894 123.815C368.784 123.815 366.042 124.531 363.659 125.912C361.254 127.243 359.373 129.03 357.999 131.252C356.702 133.45 356.055 135.878 356.055 138.577V168.972H343.361V136.519C343.361 132.646 342.428 129.61 340.655 127.277C338.998 125.095 336.144 123.815 331.712 123.815C328.884 123.815 326.393 124.547 324.212 125.973C322.038 127.369 320.362 129.132 319.164 131.228C317.954 133.282 317.397 135.25 317.397 137.137V168.972H304.702V111.782H317.397V118.381C319.076 116.797 321.072 115.344 323.367 114.012C327.019 111.893 331.177 110.856 335.806 110.856C340.303 110.856 344.204 111.891 347.446 114.047C350.13 115.742 352.173 118.11 353.556 121.116C354.605 119.941 355.84 118.752 357.253 117.55C359.458 115.673 361.98 114.099 364.81 112.82C367.716 111.505 370.844 110.856 374.18 110.856C379.275 110.856 383.45 111.944 386.556 114.301C389.65 116.534 391.846 119.576 393.098 123.4C394.373 127.102 395 131.173 395 135.594V168.972Z" fill="white"/>
</svg>
