<svg width="174" viewBox="0 0 108 44" fill="none" xmlns="http://www.w3.org/2000/svg">
    <path d="M35.0673 10.9675L35.9728 10.7067L35.4657 8.91016L34.553 9.17094L35.0673 10.9675Z" fill="#DD7432"/>
    <path d="M34.169 8.03369L35.0745 7.7729L34.553 5.90393L33.6475 6.16472L34.169 8.03369Z" fill="#DD7432"/>
    <path d="M35.7844 13.4232C35.8206 13.5536 35.8279 13.6913 35.7916 13.8217L34.9079 17.0525C34.8427 17.2988 34.6544 17.4872 34.4153 17.5596L15.6176 23.0361C15.2337 23.1521 14.828 22.9275 14.7194 22.5363L11.0975 9.69255C10.9888 9.30861 11.2134 8.91018 11.5901 8.80152L31.8655 2.84689C32.2494 2.73823 32.6478 2.95555 32.7637 3.33224L33.278 4.90421L34.1835 4.64342L33.4012 2.16594C33.2853 1.78201 32.8869 1.56468 32.503 1.68059L10.4311 8.1568C10.0471 8.26546 9.82982 8.66389 9.93847 9.04782L14.0602 23.7098C14.1689 24.101 14.5745 24.3256 14.9584 24.2097L35.1759 18.3202C35.415 18.2478 35.6033 18.0595 35.6685 17.8132L36.7623 13.8144C36.7985 13.684 36.7985 13.5464 36.7551 13.416L36.3422 11.9962L35.4367 12.257L35.7844 13.4232Z" fill="#DD7432"/>
    <path d="M37.7475 3.17285C37.1101 3.17285 36.5885 3.69443 36.5813 4.3319L34.2488 4.99836L33.336 5.2519L22.0357 8.48276L15.7408 13.9883L15.2482 12.1483L15.9364 10.9675L19.1309 9.99678L18.9208 9.30135L15.4583 10.3517L14.4731 12.0396L15.3424 15.2994L22.3906 9.13473L33.5461 5.94734L34.4516 5.68655L36.7986 5.01285C37.0086 5.30986 37.3564 5.4982 37.7475 5.4982C38.3922 5.4982 38.9138 4.97663 38.9138 4.3319C38.9138 3.68718 38.3922 3.17285 37.7475 3.17285ZM37.7475 4.78104C37.5012 4.78104 37.3056 4.58545 37.3056 4.33915C37.3056 4.09285 37.5012 3.89726 37.7475 3.89726C37.9938 3.89726 38.1894 4.09285 38.1894 4.33915C38.1894 4.58545 37.9938 4.78104 37.7475 4.78104Z" fill="#DD7432"/>
    <path d="M38.6457 6.16479C38.0155 6.16479 37.5084 6.66464 37.4794 7.28763L35.1324 7.96133L34.2269 8.22211L22.9338 11.453L16.639 16.9585L16.313 15.7342L15.6104 15.9226L16.2406 18.2769L23.2888 12.1122L34.437 8.92479L35.3425 8.664L37.6823 7.99755C37.8923 8.30904 38.2473 8.51188 38.6529 8.51188C39.2976 8.51188 39.8192 7.9903 39.8192 7.34558C39.8119 6.68637 39.2904 6.16479 38.6457 6.16479ZM38.6457 7.77298C38.3994 7.77298 38.2038 7.57739 38.2038 7.33109C38.2038 7.08479 38.3994 6.8892 38.6457 6.8892C38.892 6.8892 39.0876 7.08479 39.0876 7.33109C39.0876 7.57739 38.892 7.77298 38.6457 7.77298Z" fill="#DD7432"/>
    <path d="M39.3555 9.1637C38.7108 9.1637 38.1893 9.68527 38.1893 10.33C38.1893 10.3372 38.1893 10.3445 38.1893 10.3445L36.0306 10.9602L35.1252 11.221L23.7958 14.4591L19.1888 18.4868L16.6752 19.0881L16.8418 19.7908L19.5292 19.146L24.1435 15.1111L35.328 11.9164L36.2335 11.6557L38.4211 11.0327C38.6312 11.3152 38.9716 11.4963 39.3483 11.4963C39.993 11.4963 40.5146 10.9747 40.5146 10.33C40.5146 9.68527 40.0002 9.1637 39.3555 9.1637ZM39.3555 10.7719C39.1093 10.7719 38.9137 10.5763 38.9137 10.33C38.9137 10.0837 39.1093 9.8881 39.3555 9.8881C39.6018 9.8881 39.7974 10.0837 39.7974 10.33C39.7974 10.5763 39.6018 10.7719 39.3555 10.7719Z" fill="#DD7432"/>
    <path d="M21.8691 18.552L21.6663 17.8566L25.3896 16.7627L25.9908 15.8862L25.8532 15.227L26.5631 15.0748L26.7659 16.0455L25.8387 17.3857L21.8691 18.552Z" fill="#DD7432"/>
    <path d="M3.23816 27.2087L6.43992 21.1817C7.30918 19.6894 7.58445 18.7332 9.23604 18.2116L11.3295 17.7769C11.8728 17.6031 12.1625 18.1464 12.3436 18.6824L13.0825 21.6598C13.1767 22.0944 13.1694 22.4059 12.7565 22.5725L9.50406 23.8764C9.35918 23.9344 9.28674 24.0938 9.33745 24.2387C9.38816 24.398 9.56925 24.4777 9.72137 24.4125L12.9231 23.0941C13.4012 22.8985 13.8359 22.6087 14.2053 22.2393L16.335 20.1095C16.7768 19.6894 17.2984 19.3561 17.8634 19.1243C18.921 18.6969 20.5654 18.3709 20.8841 19.501C21.4781 21.6091 20.0511 22.7681 16.9435 24.8616C15.7193 26.1656 15.118 28.1649 15.118 28.1649C15.118 28.1649 13.1332 33.1489 10.5037 33.924C7.85971 34.6991 3.23816 27.2087 3.23816 27.2087Z" fill="black"/>
    <path d="M15.777 27.5782C16.045 26.8176 17.2331 24.6371 19.6019 23.5288C19.7105 23.478 19.8047 23.5577 19.7975 23.6736L19.7178 25.021C19.7033 25.2384 19.6381 25.4557 19.5367 25.6513C19.4353 25.8469 19.3121 26.028 19.2179 26.1439C18.7036 26.7741 17.4431 27.9621 16.0306 27.9332C15.8422 27.9332 15.7118 27.7521 15.777 27.5782Z" fill="black"/>
    <path d="M15.4149 28.578L15.0599 29.3965C15.031 29.4617 15.0817 29.5414 15.1541 29.5342L16.161 29.498C16.3566 29.4907 16.7623 29.469 16.9434 29.3821L18.0517 28.7735C18.2401 28.6794 18.3922 28.52 18.4791 28.3244L18.8196 27.3827C18.8558 27.2885 18.7544 27.1943 18.6602 27.245L17.1535 28.1288C16.9579 28.2302 16.7406 28.2954 16.5232 28.3099L15.7119 28.3679C15.5887 28.3751 15.4728 28.4548 15.4149 28.578Z" fill="black"/>
    <path d="M14.6905 30.1065L14.2776 30.8598C14.2414 30.925 14.2921 30.9975 14.3645 30.9975L16.4726 30.925C16.6175 30.925 16.7623 30.8888 16.8927 30.8236C17.2477 30.6353 17.9359 30.1717 18.1387 29.3603C18.1677 29.1865 17.3419 29.5776 16.8493 29.8239C16.603 29.9471 16.3349 30.0123 16.0597 30.0195L14.7702 30.0485C14.734 30.063 14.705 30.0775 14.6905 30.1065Z" fill="black"/>
    <path d="M34.8862 19.8923C34.7196 21.5512 34.3067 23.1666 33.6548 24.7023C32.8072 26.7017 31.5975 28.4982 30.0546 30.0412C28.5117 31.5842 26.7152 32.794 24.7159 33.6415C22.6442 34.5181 20.4493 34.9599 18.182 34.9599C15.9147 34.9599 13.7125 34.5181 11.6481 33.6415C9.64876 32.794 7.85229 31.5842 6.30936 30.0412C4.76643 28.4982 3.55671 26.7017 2.70919 24.7023C1.83268 22.6305 1.39081 20.4356 1.39081 18.1682C1.39081 15.9008 1.82544 13.7058 2.70194 11.634C3.54947 9.63463 4.75919 7.8381 6.30212 6.29511C7.84505 4.75212 9.64152 3.54236 11.6408 2.6948C13.7125 1.81827 15.9074 1.37638 18.1747 1.37638C20.2102 1.37638 22.1878 1.73134 24.0712 2.44126L26.1574 1.84724C23.7452 0.666456 21.036 0 18.1747 0C8.14205 0 0 8.13511 0 18.1754C0 28.2157 8.1348 36.3508 18.1747 36.3508C27.7655 36.3508 35.6251 28.9184 36.2988 19.5011L34.8862 19.8923Z" fill="black"/>
    <path fill-rule="evenodd" clip-rule="evenodd" d="M84.6946 13.3073C84.4194 13.8361 79.3777 25.2383 76.8786 30.9901C76.1687 32.62 75.5602 33.9312 75.5312 33.9022C75.5022 33.8733 74.7489 32.2506 73.8651 30.2947L72.2498 26.7451L71.395 26.6871C70.9241 26.6581 70.5402 26.6944 70.5475 26.7813C70.5547 26.861 71.5616 29.1066 72.793 31.7652C74.9589 36.4449 75.0459 36.6043 75.5529 36.6043C76.0528 36.6043 76.1324 36.4666 77.5812 33.2285C79.3777 29.2008 86.4187 13.329 86.5563 13.0031C86.6215 12.8364 86.4114 12.7712 85.8174 12.7712C85.0713 12.7712 84.9409 12.8292 84.6946 13.3073Z" fill="#DD7432"/>
    <path fill-rule="evenodd" clip-rule="evenodd" d="M39.3631 13.8651C38.7256 14.1187 38.5735 14.633 38.5735 16.5527C38.5735 19.2692 38.4141 19.1606 42.42 19.1606H45.6942V20.0806V20.9933H42.123H38.5518L38.6097 21.8626L38.6677 22.7319L42.6662 22.7826C47.8311 22.8478 47.5268 23.0144 47.5268 20.1095C47.5268 17.1902 47.7442 17.3423 43.6297 17.3423H40.3989V16.5237V15.7051H43.9629H47.5268V14.6982V13.6913L43.6442 13.7058C41.5072 13.7058 39.5804 13.7782 39.3631 13.8651Z" fill="black"/>
    <path fill-rule="evenodd" clip-rule="evenodd" d="M50.1706 13.8071C49.3955 13.9954 49.3521 14.2852 49.3521 18.6534V22.8187H50.2648H51.1775V19.2546V15.6906H52.0902H53.0029V19.2546V22.8187H53.8215H54.64V19.2546V15.6906H55.5528H56.4655L56.5162 19.2112L56.5669 22.7246L57.4362 22.7825L58.3054 22.8405V18.6679C58.3054 15.3501 58.2547 14.4156 58.0446 14.1403C57.8056 13.8143 57.5231 13.7854 54.1619 13.7564C52.1699 13.7274 50.3734 13.7564 50.1706 13.8071Z" fill="black"/>
    <path fill-rule="evenodd" clip-rule="evenodd" d="M60.6742 13.9158C60.2323 14.1404 60.2178 14.2056 60.1671 16.3643C60.1237 18.1971 60.1671 18.6317 60.4062 18.8708C60.6525 19.1171 61.2175 19.1605 63.9701 19.1605H67.2443V20.0805V20.9933H63.6876H60.1237V21.9133V22.8333L64.3396 22.7753C68.2657 22.7246 68.5699 22.6956 68.8162 22.3624C69.0046 22.1089 69.077 21.4497 69.077 20.0371C69.077 17.2336 69.2219 17.335 65.1509 17.335H61.9491V16.5164V15.6978L65.4623 15.6471L68.9756 15.5964V14.6837V13.7782L65.0495 13.7347C62.1592 13.6985 61.0074 13.7492 60.6742 13.9158Z" fill="black"/>
    <path fill-rule="evenodd" clip-rule="evenodd" d="M80.2614 31.5407C79.0372 34.2283 77.2915 38.0531 76.3788 40.0308C75.4733 42.0157 74.7272 43.718 74.7272 43.8194C74.7272 44.0875 76.1107 44.044 76.3281 43.776C76.4295 43.6528 77.9217 40.4727 79.6312 36.713C81.348 32.9533 82.8185 29.8094 82.9054 29.7224C82.9924 29.6355 83.7819 31.1713 84.6729 33.1344L86.2883 36.6985H87.0851C87.527 36.6985 87.8819 36.6116 87.8819 36.5029C87.8819 36.3942 86.8823 34.1341 85.6581 31.4828C83.5864 26.9769 83.4053 26.6582 82.9634 26.6582C82.5288 26.651 82.3477 26.9697 80.2614 31.5407Z" fill="#DD7432"/>
    <path fill-rule="evenodd" clip-rule="evenodd" d="M43.1007 27.6651C42.7675 27.4333 42.0503 27.3826 39.0297 27.3826C36.009 27.3826 35.2991 27.4333 34.9586 27.6651C34.5602 27.9476 34.553 28.02 34.553 32.1419V36.329H35.4657H36.3784V34.5904V32.8519H39.0297H41.6809V34.5904V36.329H42.5936H43.5063V32.1419C43.5063 28.02 43.4991 27.9476 43.1007 27.6651ZM41.6809 30.1208V31.0336H39.0297H36.3784V30.1208V29.2081H39.0297H41.6809V30.1208Z" fill="black"/>
    <path fill-rule="evenodd" clip-rule="evenodd" d="M45.7374 27.665C45.339 27.9476 45.3318 28.0273 45.3318 31.9173C45.3318 34.7643 45.397 35.9523 45.5491 36.1044C45.7085 36.2638 46.9616 36.3217 50.033 36.3217H54.2996L54.2417 35.4524L54.1837 34.5831L50.9095 34.5324C48.874 34.5035 47.5412 34.4093 47.3963 34.2789C47.2224 34.134 47.1572 33.4893 47.1572 31.9391C47.1572 29.0414 46.9472 29.1935 51.0544 29.1935H54.2851V28.2808V27.368H50.2141C46.824 27.3825 46.0779 27.4332 45.7374 27.665Z" fill="black"/>
    <path fill-rule="evenodd" clip-rule="evenodd" d="M56.1106 28.2954V29.2081H57.8419H59.5804V32.7722V36.3363H60.4931H61.4058V32.7722V29.2081H63.2385H65.0784L65.0205 28.3388L64.9625 27.4768L60.5366 27.4261L56.1106 27.3754V28.2954Z" fill="black"/>
    <path fill-rule="evenodd" clip-rule="evenodd" d="M66.8242 27.5057C66.759 27.5709 66.701 29.5848 66.701 31.9826V36.3363H67.6138H68.5266V31.8594V27.3826H67.737C67.3023 27.3826 66.8894 27.4405 66.8242 27.5057Z" fill="black"/>
    <path fill-rule="evenodd" clip-rule="evenodd" d="M88.0703 28.2953V29.2081H89.8958H91.7212V32.7722V36.3363H92.6339H93.5466V32.7722V29.2081H95.2851H97.0164V28.2953V27.3826H92.547H88.0703V28.2953Z" fill="black"/>
    <path fill-rule="evenodd" clip-rule="evenodd" d="M99.2548 27.6651C98.8564 27.9404 98.8491 28.0273 98.8491 31.787C98.8491 34.0833 98.9216 35.764 99.0375 35.9741C99.2186 36.3073 99.4648 36.329 103.521 36.329H107.817L107.759 35.4597L107.701 34.5904L104.188 34.5397L100.675 34.489V33.6704V32.8519H104.239H107.802V31.9391V31.0263H104.239H100.675V30.1136V29.2081H104.239H107.802V28.2953V27.3826H103.731C100.341 27.3826 99.588 27.4333 99.2548 27.6651Z" fill="black"/>
</svg>
