<svg xmlns="http://www.w3.org/2000/svg" version="1.1" xmlns:xlink="http://www.w3.org/1999/xlink" xmlns:svgjs="http://svgjs.com/svgjs" width="1600" height="900" preserveAspectRatio="none" viewBox="0 0 1600 900"><g mask="url(&quot;#SvgjsMask1008&quot;)" fill="none"><rect width="1600" height="900" x="0" y="0" fill="rgba(240, 243, 245, 0.77)"></rect><path d="M0,437.195C81.284,443.129,152.757,388.365,219.88,342.14C285.207,297.152,340.652,242.186,381.716,174.324C426.87,99.701,482.164,18.766,467.59,-67.229C453.062,-152.952,366.266,-202.396,307.078,-266.085C250.187,-327.302,205.016,-402.786,127.267,-433.432C46.284,-465.352,-47.31,-469.062,-128.547,-437.792C-207.201,-407.516,-249.96,-328.051,-307.205,-266.195C-366.676,-201.934,-448.603,-152.36,-471.032,-67.724C-494.319,20.149,-482.597,122.291,-429.758,196.264C-378.961,267.379,-276.404,268.737,-200.172,311.474C-130.022,350.802,-80.209,431.339,0,437.195" fill="rgba(225, 231, 235, 0.77)"></path><path d="M1600 1438.88C1719.806 1466.909 1854.529 1523.406 1960.931 1461.6190000000001 2067.158 1399.933 2072.075 1250.561 2119.462 1137.23 2165.1 1028.0819999999999 2247.9809999999998 926.323 2233.87 808.863 2219.676 690.715 2127.9539999999997 599.687 2044.672 514.6890000000001 1965.493 433.879 1878.058 352.345 1766.746 332.115 1659.513 312.626 1561.246 381.53700000000003 1455.417 407.595 1343.434 435.168 1197.371 398.731 1126.545 489.749 1055.086 581.581 1126.921 715.407 1125.356 831.756 1124.036 929.877 1079.248 1029.967 1118.067 1120.092 1157.142 1210.812 1251.034 1260.315 1333.4180000000001 1314.81 1416.855 1370.002 1502.591 1416.091 1600 1438.88" fill="rgba(255, 255, 255, 0.77)"></path></g><defs><mask id="SvgjsMask1008"><rect width="1600" height="900" fill="#ffffff"></rect></mask></defs></svg>